<svg width="18" height="17" viewBox="0 0 18 17" fill="none" xmlns="http://www.w3.org/2000/svg">
<path d="M11.0238 16.1183C9.66294 16.2043 8.32394 16.2037 6.97833 16.1166V16.114V16.1042V16.0945V16.0847V16.0748V16.0648V16.0548V16.0448V16.0347V16.0245V16.0143V16.004V15.9937V15.9833V15.9728V15.9623V15.9518V15.9412V15.9305V15.9198V15.9091V15.8983V15.8874V15.8765V15.8655V15.8545V15.8434V15.8323V15.8212V15.81V15.7987V15.7874V15.7761V15.7647V15.7532V15.7417V15.7302V15.7186V15.707V15.6953V15.6836V15.6718V15.66V15.6481V15.6363V15.6243V15.6123V15.6003V15.5883V15.5762V15.564V15.5518V15.5396V15.5273V15.515V15.5027V15.4903V15.4779V15.4655V15.453V15.4404V15.4279V15.4153V15.4026V15.39V15.3772V15.3645V15.3517V15.3389V15.3261V15.3132V15.3003V15.2873V15.2744V15.2614V15.2483V15.2352V15.2221V15.209V15.1959V15.1827V15.1695V15.1562V15.1429V15.1296V15.1163V15.1029V15.0896V15.0761V15.0627V15.0492V15.0358V15.0222V15.0087V14.9951V14.9816V14.9679V14.9543V14.9407V14.927V14.9133V14.8996V14.8858V14.872V14.8583V14.8445V14.8306V14.8168V14.8029V14.789V14.7752V14.7612V14.7473V14.7333V14.7194V14.7054V14.6914V14.6774V14.6633V14.6493V14.6352V14.6212V14.6071V14.593V14.5789V14.5647V14.5506V14.5364V14.5223V14.5081V14.4939V14.4797V14.4655V14.4513V14.4371V14.4229V14.4086V14.3944V14.3801V14.3658V14.3516V14.3373V14.323V14.3087V14.2944V14.2801V14.2658V14.2515V14.2372V14.2229V14.2086V14.1942V14.1799V14.1656V14.1512V14.1369V14.1226V14.1083V14.0939V14.0796V14.0653V14.0509V14.0366V14.0223V14.0079V13.9936V13.9793V13.965V13.9507V13.9363V13.922V13.9077V13.8934V13.8791V13.8649V13.8506V13.8363V13.822V13.8078V13.7935V13.7793V13.7651V13.7508V13.7366V13.7224V13.7082V13.694V13.6798V13.6657V13.6515V13.6374V13.6232V13.6091V13.595V13.5809V13.5669V13.5528V13.5387V13.5247V13.5107V13.4967V13.4827V13.4687V13.4548V13.4408V13.4269V13.413V13.3991V13.3852V13.3714V13.3576V13.3438V13.33V13.3162V13.3024V13.2887V13.275V13.2613V13.2477V13.234V13.2204V13.2068V13.1932V13.1797V13.1662V13.1527V13.1392V13.1258V13.1123V13.099V13.0856V13.0723V13.0589V13.0457V13.0324V13.0192V13.006V12.9928V12.9797V12.9666V12.9535V12.9404V12.9274V12.9144V12.9015V12.8886V12.8757V12.8628V12.85V12.8372V12.8245V12.8117V12.7991V12.7864V12.7738V12.7612V12.7487V12.7362V12.7237V12.7113V12.6989V12.6865V12.6742V12.662V12.6497V12.6375V12.6254V12.6133V12.6012V12.5892V12.5772V12.5652V12.5533V12.5414V12.5296V12.5179V12.5061V12.4944V12.4828V12.4712V12.4596V12.4481V12.4367V12.4253V12.4139V12.4026V12.3913V12.3801V12.3689V12.3578V12.3467V12.3357V12.3247V12.3138V12.3029V12.2921V12.2813V12.2706V12.2599V12.2493V12.2387V12.2282V12.2178V12.2073V12.197V12.1867V12.1765V12.1663V12.1562V12.1461V12.1361V12.1261V12.1162V12.1064V12.0966V12.0869V12.0772V12.0676V12.058V12.0486V12.0391V12.0298V12.0205V12.0112V12.002V11.9929V11.9839V11.9749V11.9659V11.9571V11.9483V11.9395V11.9309V11.9222V11.9137V11.9052V11.8968V11.8885V11.8802V11.872V11.8639V11.8558V11.8478V11.8398V11.832V11.8242V11.8165V11.8088V11.8012V11.7937V11.7863V11.7789V11.7716V11.7644V11.7572V11.7502V11.7432V11.7362V11.7294V11.7226V11.7159V11.7093V11.7027V11.6963V11.6899V11.6835V11.6773V11.6711V11.6651V11.659V11.6531V11.6473V11.6415V11.6358V11.6302V11.6247V11.6192V11.6139V11.6086V11.6034V11.5983V11.5932V11.5883V11.5834V11.5787V11.574V11.5693V11.5648V11.5604V11.556V11.5518V11.5476V11.5435V11.5395C6.97833 11.4204 7.0445 11.2452 7.20277 11.0866C7.36114 10.9279 7.53526 10.8623 7.65257 10.8623H7.65653H7.6605H7.66449H7.6685H7.67252H7.67655H7.6806H7.68466H7.68874H7.69284H7.69695H7.70107H7.70521H7.70936H7.71353H7.71772H7.72191H7.72612H7.73035H7.73459H7.73884H7.74311H7.7474H7.75169H7.756H7.76033H7.76467H7.76902H7.77338H7.77776H7.78216H7.78656H7.79098H7.79542H7.79986H7.80432H7.8088H7.81329H7.81779H7.8223H7.82683H7.83136H7.83592H7.84048H7.84506H7.84965H7.85425H7.85887H7.8635H7.86814H7.87279H7.87746H7.88213H7.88682H7.89153H7.89624H7.90097H7.9057H7.91045H7.91522H7.91999H7.92478H7.92957H7.93438H7.9392H7.94404H7.94888H7.95373H7.9586H7.96348H7.96837H7.97327H7.97818H7.9831H7.98803H7.99298H7.99793H8.0029H8.00787H8.01286H8.01786H8.02287H8.02788H8.03291H8.03795H8.043H8.04806H8.05313H8.05821H8.0633H8.0684H8.07351H8.07863H8.08376H8.0889H8.09405H8.09921H8.10438H8.10956H8.11475H8.11995H8.12515H8.13037H8.13559H8.14083H8.14607H8.15132H8.15658H8.16185H8.16713H8.17242H8.17772H8.18302H8.18834H8.19366H8.19899H8.20433H8.20968H8.21503H8.2204H8.22577H8.23115H8.23654H8.24194H8.24734H8.25275H8.25817H8.2636H8.26904H8.27448H8.27993H8.28539H8.29086H8.29633H8.30181H8.3073H8.3128H8.3183H8.32381H8.32933H8.33485H8.34038H8.34592H8.35146H8.35701H8.36257H8.36814H8.37371H8.37928H8.38487H8.39046H8.39606H8.40166H8.40727H8.41288H8.41851H8.42413H8.42977H8.43541H8.44105H8.4467H8.45236H8.45802H8.46369H8.46936H8.47504H8.48073H8.48642H8.49211H8.49781H8.50352H8.50923H8.51494H8.52067H8.52639H8.53212H8.53786H8.5436H8.54934H8.55509H8.56085H8.5666H8.57237H8.57814H8.58391H8.58968H8.59546H8.60125H8.60704H8.61283H8.61863H8.62443H8.63023H8.63604H8.64185H8.64767H8.65349H8.65931H8.66514H8.67096H8.6768H8.68263H8.68847H8.69432H8.70016H8.70601H8.71186H8.71772H8.72358H8.72944H8.7353H8.74117H8.74704H8.75291H8.75878H8.76466H8.77054H8.77642H8.7823H8.78819H8.79408H8.79997H8.80586H8.81175H8.81765H8.82355H8.82945H8.83535H8.84125H8.84716H8.85306H8.85897H8.86488H8.87079H8.8767H8.88262H8.88853H8.89445H8.90036H8.90628H8.9122H8.91812H8.92404H8.92996H8.93588H8.9418H8.94773H8.95365H8.95958H8.9655H8.97143H8.97735H8.98328H8.9892H8.99513H9.00105H9.00698H9.01291H9.01883H9.02476H9.03068H9.03661H9.04253H9.04846H9.05438H9.0603H9.06623H9.07215H9.07807H9.08399H9.08991H9.09583H9.10175H9.10766H9.11358H9.11949H9.12541H9.13132H9.13723H9.14314H9.14905H9.15495H9.16086H9.16676H9.17266H9.17856H9.18446H9.19036H9.19625H9.20214H9.20803H9.21392H9.2198H9.22569H9.23157H9.23745H9.24333H9.2492H9.25507H9.26094H9.26681H9.27267H9.27853H9.28439H9.29024H9.2961H9.30194H9.30779H9.31363H9.31947H9.32531H9.33114H9.33697H9.3428H9.34862H9.35444H9.36026H9.36607H9.37188H9.37768H9.38348H9.38928H9.39507H9.40086H9.40664H9.41242H9.4182H9.42397H9.42974H9.4355H9.44126H9.44702H9.45277H9.45851H9.46425H9.46999H9.47572H9.48144H9.48716H9.49288H9.49859H9.5043H9.51H9.51569H9.52138H9.52707H9.53274H9.53842H9.54409H9.54975H9.55541H9.56106H9.5667H9.57234H9.57797H9.5836H9.58922H9.59484H9.60045H9.60605H9.61165H9.61724H9.62282H9.6284H9.63397H9.63954H9.64509H9.65065H9.65619H9.66173H9.66726H9.67278H9.6783H9.68381H9.68931H9.69481H9.7003H9.70578H9.71125H9.71672H9.72217H9.72763H9.73307H9.73851H9.74393H9.74935H9.75477H9.76017H9.76557H9.77096H9.77634H9.78171H9.78708H9.79243H9.79778H9.80312H9.80845H9.81377H9.81909H9.82439H9.82969H9.83498H9.84025H9.84552H9.85079H9.85604H9.86128H9.86652H9.87174H9.87696H9.88216H9.88736H9.89255H9.89773H9.90289H9.90805H9.9132H9.91834H9.92347H9.92859H9.9337H9.9388H9.94389H9.94897H9.95404H9.9591H9.96415H9.96919H9.97422H9.97924H9.98425H9.98925H9.99423H9.99921H10.0042H10.0091H10.0141H10.019H10.0239H10.0288H10.0337H10.0386H10.0435H10.0484H10.0532H10.0581H10.0629H10.0677H10.0725H10.0773H10.0821H10.0869H10.0917H10.0964H10.1011H10.1059H10.1106H10.1153H10.12H10.1247H10.1293H10.134H10.1386H10.1432H10.1479H10.1525H10.157H10.1616H10.1662H10.1707H10.1753H10.1798H10.1843H10.1888H10.1933H10.1978H10.2022H10.2067H10.2111H10.2155H10.22H10.2243H10.2287H10.2331H10.2374H10.2418H10.2461H10.2504H10.2547H10.259H10.2633H10.2675H10.2718H10.276H10.2802H10.2844H10.2886H10.2927H10.2969H10.301H10.3052H10.3093H10.3134H10.3174H10.3215H10.3256H10.3296H10.3336H10.3376H10.3416H10.3456H10.3495C10.4668 10.8623 10.641 10.9279 10.7993 11.0866C10.9576 11.2452 11.0238 11.4204 11.0238 11.5395V14.3958V14.41V14.4243V14.4385V14.4527V14.467V14.4812V14.4954V14.5096V14.5238V14.5379V14.5521V14.5662V14.5804V14.5945V14.6086V14.6227V14.6368V14.6509V14.6649V14.6789V14.7349V14.7489V14.7628V14.7768V14.7907V14.8046V14.8184V14.8323V14.8461V14.8599V14.8737V14.8875V14.9012V14.915V14.9287V14.9424V14.956V14.9697V14.9833V14.9969V15.0105V15.024V15.0375V15.051V15.0645V15.0779V15.0914V15.1047V15.1181V15.1448V15.158V15.1713V15.1845V15.1977V15.2109V15.224V15.2371V15.2502V15.2633V15.2763V16.0269V16.037V16.0472V16.0572V16.0672V16.0772V16.0871V16.0969V16.1067V16.1183ZM5.62985 15.9937V16.0007C5.4061 15.9767 5.18186 15.9504 4.95701 15.9217C3.97146 15.796 3.3419 15.5548 2.92238 15.2144C2.51689 14.8854 2.23335 14.403 2.0645 13.6314C1.40369 10.6116 1.57072 7.92324 1.71843 6.89066C1.73378 6.8649 1.76097 6.82454 1.80494 6.76834C1.90467 6.64091 2.05694 6.47472 2.26173 6.27289C2.66925 5.87125 3.23592 5.37601 3.88282 4.84094C5.17362 3.77327 6.7386 2.58411 7.87954 1.73463C8.56738 1.2225 9.50024 1.22034 10.1899 1.72925C11.3403 2.57813 12.9191 3.76866 14.2132 4.8375C14.862 5.37333 15.4266 5.8683 15.8274 6.26868C16.0291 6.4701 16.1754 6.63389 16.2681 6.75735C16.3003 6.80031 16.3214 6.83235 16.3346 6.85422C16.4077 7.95314 16.586 10.6395 15.9943 13.6453C15.8429 14.4141 15.5616 14.8929 15.1555 15.2192C14.7324 15.559 14.0942 15.7981 13.1063 15.9215C12.8605 15.9522 12.6159 15.9802 12.3723 16.0055V15.996V15.9856V15.9752V15.9647V15.9541V15.9435V15.9328V15.9221V15.9114V15.9005V15.8897V15.8788V15.8678V15.8568V15.674V15.4799V15.4675V15.455V15.4424V15.4299V15.3792V15.3665V15.3537V15.3409V15.328V15.3151V15.3022V15.2893V15.2763V15.2633V15.2502V15.2371V15.224V15.2109V15.1977V15.1845V15.1713V15.158V15.1448V15.1181V15.1047V15.0914V15.0779V15.0645V15.051V15.0375V15.024V15.0105V14.9969V14.9833V14.9697V14.956V14.9424V14.9287V14.915V14.9012V14.8875V14.8737V14.8599V14.8461V14.8323V14.8184V14.8046V14.7907V14.7768V14.7628V14.7489V14.7349V14.6789V14.6649V14.6509V14.6368V14.6227V14.6086V14.5945V14.5804V14.5662V14.5521V14.5379V14.5238V14.5096V14.4954V14.4812V14.467V14.4527V14.4385V14.4243V14.41V14.3958V11.5395C12.3723 10.9829 12.1013 10.4823 11.7539 10.1341C11.4066 9.78606 10.9065 9.5138 10.3495 9.5138H10.3456H10.3416H10.3376H10.3336H10.3296H10.3256H10.3215H10.3174H10.3134H10.3093H10.3052H10.301H10.2969H10.2927H10.2886H10.2844H10.2802H10.276H10.2718H10.2675H10.2633H10.259H10.2547H10.2504H10.2461H10.2418H10.2374H10.2331H10.2287H10.2243H10.22H10.2155H10.2111H10.2067H10.2022H10.1978H10.1933H10.1888H10.1843H10.1798H10.1753H10.1707H10.1662H10.1616H10.157H10.1525H10.1479H10.1432H10.1386H10.134H10.1293H10.1247H10.12H10.1153H10.1106H10.1059H10.1011H10.0964H10.0917H10.0869H10.0821H10.0773H10.0725H10.0677H10.0629H10.0581H10.0532H10.0484H10.0435H10.0386H10.0337H10.0288H10.0239H10.019H10.0141H10.0091H10.0042H9.99921H9.99423H9.98925H9.98425H9.97924H9.97422H9.96919H9.96415H9.9591H9.95404H9.94897H9.94389H9.9388H9.9337H9.92859H9.92347H9.91834H9.9132H9.90805H9.90289H9.89773H9.89255H9.88736H9.88216H9.87696H9.87174H9.86652H9.86128H9.85604H9.85079H9.84552H9.84025H9.83498H9.82969H9.82439H9.81909H9.81377H9.80845H9.80312H9.79778H9.79243H9.78708H9.78171H9.77634H9.77096H9.76557H9.76017H9.75477H9.74935H9.74393H9.73851H9.73307H9.72763H9.72217H9.71672H9.71125H9.70578H9.7003H9.69481H9.68931H9.68381H9.6783H9.67278H9.66726H9.66173H9.65619H9.65065H9.64509H9.63954H9.63397H9.6284H9.62282H9.61724H9.61165H9.60605H9.60045H9.59484H9.58922H9.5836H9.57797H9.57234H9.5667H9.56106H9.55541H9.54975H9.54409H9.53842H9.53274H9.52707H9.52138H9.51569H9.51H9.5043H9.49859H9.49288H9.48716H9.48144H9.47572H9.46999H9.46425H9.45851H9.45277H9.44702H9.44126H9.4355H9.42974H9.42397H9.4182H9.41242H9.40664H9.40086H9.39507H9.38928H9.38348H9.37768H9.37188H9.36607H9.36026H9.35444H9.34862H9.3428H9.33697H9.33114H9.32531H9.31947H9.31363H9.30779H9.30194H9.2961H9.29024H9.28439H9.27853H9.27267H9.26681H9.26094H9.25507H9.2492H9.24333H9.23745H9.23157H9.22569H9.2198H9.21392H9.20803H9.20214H9.19625H9.19036H9.18446H9.17856H9.17266H9.16676H9.16086H9.15495H9.14905H9.14314H9.13723H9.13132H9.12541H9.11949H9.11358H9.10766H9.10175H9.09583H9.08991H9.08399H9.07807H9.07215H9.06623H9.0603H9.05438H9.04846H9.04253H9.03661H9.03068H9.02476H9.01883H9.01291H9.00698H9.00105H8.99513H8.9892H8.98328H8.97735H8.97143H8.9655H8.95958H8.95365H8.94773H8.9418H8.93588H8.92996H8.92404H8.91812H8.9122H8.90628H8.90036H8.89445H8.88853H8.88262H8.8767H8.87079H8.86488H8.85897H8.85306H8.84716H8.84125H8.83535H8.82945H8.82355H8.81765H8.81175H8.80586H8.79997H8.79408H8.78819H8.7823H8.77642H8.77054H8.76466H8.75878H8.75291H8.74704H8.74117H8.7353H8.72944H8.72358H8.71772H8.71186H8.70601H8.70016H8.69432H8.68847H8.68263H8.6768H8.67096H8.66514H8.65931H8.65349H8.64767H8.64185H8.63604H8.63023H8.62443H8.61863H8.61283H8.60704H8.60125H8.59546H8.58968H8.58391H8.57814H8.57237H8.5666H8.56085H8.55509H8.54934H8.5436H8.53786H8.53212H8.52639H8.52067H8.51494H8.50923H8.50352H8.49781H8.49211H8.48642H8.48073H8.47504H8.46936H8.46369H8.45802H8.45236H8.4467H8.44105H8.43541H8.42977H8.42413H8.41851H8.41288H8.40727H8.40166H8.39606H8.39046H8.38487H8.37928H8.37371H8.36814H8.36257H8.35701H8.35146H8.34592H8.34038H8.33485H8.32933H8.32381H8.3183H8.3128H8.3073H8.30181H8.29633H8.29086H8.28539H8.27993H8.27448H8.26904H8.2636H8.25817H8.25275H8.24734H8.24194H8.23654H8.23115H8.22577H8.2204H8.21503H8.20968H8.20433H8.19899H8.19366H8.18834H8.18302H8.17772H8.17242H8.16713H8.16185H8.15658H8.15132H8.14607H8.14083H8.13559H8.13037H8.12515H8.11995H8.11475H8.10956H8.10438H8.09921H8.09405H8.0889H8.08376H8.07863H8.07351H8.0684H8.0633H8.05821H8.05313H8.04806H8.043H8.03795H8.03291H8.02788H8.02287H8.01786H8.01286H8.00787H8.0029H7.99793H7.99298H7.98803H7.9831H7.97818H7.97327H7.96837H7.96348H7.9586H7.95373H7.94888H7.94404H7.9392H7.93438H7.92957H7.92478H7.91999H7.91522H7.91045H7.9057H7.90097H7.89624H7.89153H7.88682H7.88213H7.87746H7.87279H7.86814H7.8635H7.85887H7.85425H7.84965H7.84506H7.84048H7.83592H7.83136H7.82683H7.8223H7.81779H7.81329H7.8088H7.80432H7.79986H7.79542H7.79098H7.78656H7.78216H7.77776H7.77338H7.76902H7.76467H7.76033H7.756H7.75169H7.7474H7.74311H7.73884H7.73459H7.73035H7.72612H7.72191H7.71772H7.71353H7.70936H7.70521H7.70107H7.69695H7.69284H7.68874H7.68466H7.6806H7.67655H7.67252H7.6685H7.66449H7.6605H7.65653H7.65257C7.09564 9.5138 6.59552 9.78606 6.2482 10.1341C5.9008 10.4823 5.62985 10.9829 5.62985 11.5395V11.5435V11.5476V11.5518V11.556V11.5604V11.5648V11.5693V11.574V11.5787V11.5834V11.5883V11.5932V11.5983V11.6034V11.6086V11.6139V11.6192V11.6247V11.6302V11.6358V11.6415V11.6473V11.6531V11.659V11.6651V11.6711V11.6773V11.6835V11.6899V11.6963V11.7027V11.7093V11.7159V11.7226V11.7294V11.7362V11.7432V11.7502V11.7572V11.7644V11.7716V11.7789V11.7863V11.7937V11.8012V11.8088V11.8165V11.8242V11.832V11.8398V11.8478V11.8558V11.8639V11.872V11.8802V11.8885V11.8968V11.9052V11.9137V11.9222V11.9309V11.9395V11.9483V11.9571V11.9659V11.9749V11.9839V11.9929V12.002V12.0112V12.0205V12.0298V12.0391V12.0486V12.058V12.0676V12.0772V12.0869V12.0966V12.1064V12.1162V12.1261V12.1361V12.1461V12.1562V12.1663V12.1765V12.1867V12.197V12.2073V12.2178V12.2282V12.2387V12.2493V12.2599V12.2706V12.2813V12.2921V12.3029V12.3138V12.3247V12.3357V12.3467V12.3578V12.3689V12.3801V12.3913V12.4026V12.4139V12.4253V12.4367V12.4481V12.4596V12.4712V12.4828V12.4944V12.5061V12.5179V12.5296V12.5414V12.5533V12.5652V12.5772V12.5892V12.6012V12.6133V12.6254V12.6375V12.6497V12.662V12.6742V12.6865V12.6989V12.7113V12.7237V12.7362V12.7487V12.7612V12.7738V12.7864V12.7991V12.8117V12.8245V12.8372V12.85V12.8628V12.8757V12.8886V12.9015V12.9144V12.9274V12.9404V12.9535V12.9666V12.9797V12.9928V13.006V13.0192V13.0324V13.0457V13.0589V13.0723V13.0856V13.099V13.1123V13.1258V13.1392V13.1527V13.1662V13.1797V13.1932V13.2068V13.2204V13.234V13.2477V13.2613V13.275V13.2887V13.3024V13.3162V13.33V13.3438V13.3576V13.3714V13.3852V13.3991V13.413V13.4269V13.4408V13.4548V13.4687V13.4827V13.4967V13.5107V13.5247V13.5387V13.5528V13.5669V13.5809V13.595V13.6091V13.6232V13.6374V13.6515V13.6657V13.6798V13.694V13.7082V13.7224V13.7366V13.7508V13.7651V13.7793V13.7935V13.8078V13.822V13.8363V13.8506V13.8649V13.8791V13.8934V13.9077V13.922V13.9363V13.9507V13.965V13.9793V13.9936V14.0079V14.0223V14.0366V14.0509V14.0653V14.0796V14.0939V14.1083V14.1226V14.1369V14.1512V14.1656V14.1799V14.1942V14.2086V14.2229V14.2372V14.2515V14.2658V14.2801V14.2944V14.3087V14.323V14.3373V14.3516V14.3658V14.3801V14.3944V14.4086V14.4229V14.4371V14.4513V14.4655V14.4797V14.4939V14.5081V14.5223V14.5364V14.5506V14.5647V14.5789V14.593V14.6071V14.6212V14.6352V14.6493V14.6633V14.6774V14.6914V14.7054V14.7194V14.7333V14.7473V14.7612V14.7752V14.789V14.8029V14.8168V14.8306V14.8445V14.8583V14.872V14.8858V14.8996V14.9133V14.927V14.9407V14.9543V14.9679V14.9816V14.9951V15.0087V15.0222V15.0358V15.0492V15.0627V15.0761V15.0896V15.1029V15.1163V15.1296V15.1429V15.1562V15.1695V15.1827V15.1959V15.209V15.2221V15.2352V15.2483V15.2614V15.2744V15.2873V15.3003V15.3132V15.3261V15.3389V15.3517V15.3645V15.3772V15.39V15.4026V15.4153V15.4279V15.4404V15.453V15.4655V15.4779V15.4903V15.5027V15.515V15.5273V15.5396V15.5518V15.564V15.5762V15.5883V15.6003V15.6123V15.6243V15.6363V15.6481V15.66V15.6718V15.6836V15.6953V15.707V15.7186V15.7302V15.7417V15.7532V15.7647V15.7761V15.7874V15.7987V15.81V15.8212V15.8323V15.8434V15.8545V15.8655V15.8765V15.8874V15.8983V15.9091V15.9198V15.9305V15.9412V15.9518V15.9623V15.9728V15.9833V15.9937ZM1.70587 6.91384C1.70581 6.91386 1.70632 6.91264 1.70758 6.91012C1.70656 6.91256 1.70593 6.91382 1.70587 6.91384ZM16.3514 6.88545C16.3513 6.88545 16.3505 6.8839 16.3493 6.88091C16.3508 6.88397 16.3514 6.88546 16.3514 6.88545Z" stroke="white" stroke-width="1.34848" stroke-linecap="round" stroke-linejoin="round"/>
</svg>
