<svg width="17" height="19" viewBox="0 0 17 19" fill="none" xmlns="http://www.w3.org/2000/svg">
<path d="M6.02734 16.9912C7.24098 18.07 9.66825 18.07 10.8819 16.9912" stroke="#606060" stroke-width="1.34848" stroke-linecap="round" stroke-linejoin="round"/>
<path fill-rule="evenodd" clip-rule="evenodd" d="M9.26183 0.851445C9.26256 0.837418 9.26292 0.823297 9.26292 0.80909C9.26292 0.362242 8.90068 0 8.45383 0C8.00698 0 7.64474 0.362242 7.64474 0.80909C7.64474 0.823341 7.64511 0.837505 7.64584 0.851575C4.93741 1.24217 2.38901 4.28816 2.79059 7.68662C2.99859 8.72662 2.34367 9.27761 1.66201 9.8511C1.01788 10.393 0.349865 10.955 0.363486 11.9687C0.363486 13.3894 1.17238 14.1593 2.36036 14.5412C2.36036 14.5412 4.53607 15.373 8.45428 15.373C12.3725 15.373 14.5482 14.5412 14.5482 14.5412C15.7362 14.1593 16.5453 13.3503 16.5451 11.9687C16.545 10.9463 15.8773 10.3841 15.2368 9.84464C14.5581 9.27313 13.9099 8.7272 14.118 7.68662C14.5196 4.28779 11.9706 1.2415 9.26183 0.851445ZM3.71776 9.63642C4.09481 9.04026 4.2765 8.32039 4.12478 7.48452C3.97336 6.09082 4.45902 4.74952 5.29358 3.74375C6.15083 2.71063 7.26371 2.15784 8.22693 2.15784H8.68164C9.64486 2.15784 10.7577 2.71063 11.615 3.74375C12.4495 4.74951 12.9352 6.0908 12.7838 7.48448C12.6327 8.31618 12.8098 9.03391 13.1849 9.63061C13.5162 10.1577 13.9864 10.5542 14.2937 10.8133L14.3103 10.8273C15.0583 11.4583 15.1966 11.6362 15.1966 11.9689C15.1967 12.378 15.0843 12.6123 14.9545 12.7687C14.8101 12.9427 14.5573 13.1218 14.1356 13.2574L14.1008 13.2686L14.0712 13.2799L14.071 13.2799L14.0653 13.282L14.0448 13.2893L14.0144 13.2997C13.9641 13.3168 13.8812 13.3437 13.7666 13.3774C13.5373 13.4449 13.1811 13.5392 12.7046 13.6351C11.7519 13.8267 10.3176 14.0245 8.45428 14.0245C6.59099 14.0245 5.1567 13.8267 4.20394 13.6351C3.72745 13.5392 3.37124 13.4449 3.14196 13.3774C3.02732 13.3437 2.94444 13.3168 2.89414 13.2997C2.86899 13.2912 2.85199 13.2852 2.84325 13.282L2.83757 13.2799L2.83741 13.2799L2.80777 13.2685L2.77298 13.2574C2.33599 13.1169 2.08749 12.9422 1.94925 12.7775C1.82839 12.6336 1.71197 12.4048 1.71197 11.9687V11.9596L1.71185 11.9506C1.70771 11.6425 1.82905 11.4738 2.58717 10.835L2.60405 10.8207C2.91293 10.5605 3.38459 10.1632 3.71776 9.63642Z" fill="#606060"/>
</svg>
