<svg width="63" height="54" viewBox="0 0 203 54" fill="none" xmlns="http://www.w3.org/2000/svg">
<path fill-rule="evenodd" clip-rule="evenodd" d="M142.08 32.9689C140.772 36.1088 136.062 40.5047 129.782 36.1088L123.241 42.6503C125.857 44.8307 131.876 49.1917 139.725 47.3601C148.098 45.0052 152.023 38.987 152.023 32.9689V15.1762C152.023 10.4535 146.79 0 135.539 0C121.148 0.523316 117.749 11.2458 117.746 17.531C117.743 23.5492 122.98 38.2021 142.08 32.9689ZM135.016 25.1192C139.351 25.1192 142.865 21.6047 142.865 17.2694C142.865 12.9341 139.351 9.41969 135.016 9.41969C130.68 9.41969 127.166 12.9341 127.166 17.2694C127.166 21.6047 130.68 25.1192 135.016 25.1192Z" fill="white"/>
<path fill-rule="evenodd" clip-rule="evenodd" d="M102.834 32.9689C101.526 36.1088 96.8161 40.5047 90.5363 36.1088L83.9948 42.6503C86.6114 44.8307 92.6295 49.1917 100.479 47.3601C108.852 45.0052 112.777 38.987 112.777 32.9689V15.1762C112.777 10.4535 107.544 0 96.2927 0C81.9016 0.523316 78.5031 11.2458 78.5 17.531C78.497 23.5492 83.7337 38.2021 102.834 32.9689ZM95.7694 25.6425C100.105 25.6425 103.619 22.128 103.619 17.7927C103.619 13.4575 100.105 9.94301 95.7694 9.94301C91.4341 9.94301 87.9197 13.4575 87.9197 17.7927C87.9197 22.128 91.4341 25.6425 95.7694 25.6425Z" fill="white"/>
<path fill-rule="evenodd" clip-rule="evenodd" d="M0.000139893 32.9689V15.1762C0.000139893 10.4535 5.2333 0 16.4846 0C30.8758 0.523316 34.2742 11.2458 34.2773 17.531C34.2803 23.5492 29.0436 38.2021 9.94314 32.9689V53.3782L0.000139893 48.4807V32.9689ZM17.0078 25.1197C12.6725 25.1197 9.15803 21.6052 9.15803 17.2699C9.15803 12.9346 12.6725 9.4202 17.0078 9.4202C21.3431 9.4202 24.8575 12.9346 24.8575 17.2699C24.8575 21.6052 21.3431 25.1197 17.0078 25.1197Z" fill="white"/>
<path d="M179.119 11.651L184.303 4.79169C177.985 1.25369 157.487 -0.768092 157.009 11.6513C156.584 22.7062 166.864 23.556 171.464 23.556C172.315 23.556 176.992 23.556 176.142 26.107C174.866 28.6579 165.513 27.5243 162.536 26.107L157.009 32.8434C158.029 34.2039 166.404 36.3814 170.656 36.3814C175.758 36.3814 185.954 35.1178 186.346 26.107C186.686 18.2838 179.685 16.328 176.142 16.328C173.165 16.328 166.525 16.2798 166.865 12.8784C167.205 9.47701 175.434 10.659 179.119 11.651Z" fill="white"/>
<path fill-rule="evenodd" clip-rule="evenodd" d="M73.2504 13.003C72.1685 8.75934 69.5142 5.08392 65.8233 2.72253C62.1071 0.345001 57.622 -0.520198 53.2882 0.304454C51.9883 0.551799 50.7316 0.945542 49.5394 1.47211C49.145 1.64627 48.7565 1.83548 48.3748 2.03951C45.8701 3.37827 43.7343 5.31406 42.1565 7.67541C40.5787 10.0368 39.6076 12.7508 39.3293 15.5771C39.0509 18.4034 39.4738 21.2547 40.5607 23.8785C41.6475 26.5023 43.3646 28.8176 45.5599 30.6192C47.7552 32.4209 50.361 33.6533 53.1464 34.2074C55.9318 34.7614 58.8109 34.62 61.5286 33.7956C64.2463 32.9712 66.7187 31.4893 68.7269 29.4811L62.2098 22.964C61.2734 23.9005 60.1204 24.5915 58.8532 24.9759C57.5859 25.3603 56.2433 25.4263 54.9445 25.1679C53.6456 24.9096 52.4305 24.3349 51.4068 23.4948C50.8413 23.0307 50.3439 22.4935 49.9265 21.8994H73.2512V13.0954L73.2724 13.0901C73.2654 13.062 73.2583 13.034 73.2512 13.006V13.003H73.2504ZM63.3461 13.003C62.7186 11.9984 61.8715 11.1357 60.8562 10.4861C59.5515 9.6514 58.0436 9.21644 56.5155 9.21657V9.2169C55.4531 9.2169 54.4038 9.42711 53.4273 9.83259C52.0611 10.4001 50.8671 11.3376 49.9884 12.5541C49.8824 12.7007 49.7818 12.8505 49.6865 13.003H63.3461Z" fill="white"/>
<circle cx="196.768" cy="29.3054" r="5.23316" fill="#9A9A9A"/>
</svg>
